<?xml version="1.0" standalone="no"?>
<!DOCTYPE svg PUBLIC "-//W3C//DTD SVG 20010904//EN"
 "http://www.w3.org/TR/2001/REC-SVG-20010904/DTD/svg10.dtd">
<svg version="1.0" xmlns="http://www.w3.org/2000/svg"
 width="1024.000000pt" height="1024.000000pt" viewBox="0 0 1024.000000 1024.000000"
 preserveAspectRatio="xMidYMid meet">

<g transform="translate(0.000000,1024.000000) scale(0.100000,-0.100000)"
fill="#000000" stroke="none">
<path d="M1129 9315 c-106 -90 -197 -175 -202 -187 -4 -13 -100 -549 -212
-1193 -113 -643 -209 -1189 -214 -1212 l-9 -43 418 0 418 0 198 168 198 168
212 1205 c117 662 215 1216 218 1232 l6 27 -418 0 -418 0 -195 -165z m461
-331 c0 -15 -304 -1751 -315 -1801 -5 -22 -10 -23 -110 -23 -70 0 -105 4 -105
11 0 10 303 1738 316 1802 l6 27 104 0 c89 0 104 -2 104 -16z"/>
<path d="M2369 9478 c0 -2 -112 -631 -248 -1398 l-246 -1395 234 -3 c129 -1
236 0 239 3 3 3 56 290 118 637 l113 633 -2 -638 -2 -637 239 2 239 3 247
1398 246 1397 -237 0 c-218 0 -238 -1 -243 -17 -3 -10 -46 -252 -96 -538 -51
-286 -93 -521 -94 -523 -3 -3 -13 340 -23 771 l-6 307 -239 0 c-131 0 -238 -1
-239 -2z"/>
<path d="M3765 9468 c-2 -7 -112 -632 -245 -1388 -132 -756 -243 -1381 -245
-1387 -3 -10 84 -13 414 -13 l419 0 199 169 198 168 83 474 c45 261 82 477 82
482 0 4 -107 7 -237 7 l-238 0 -68 -393 c-38 -215 -71 -400 -73 -409 -5 -16
-19 -18 -110 -18 -69 0 -104 4 -104 11 0 6 90 521 200 1144 110 623 200 1140
200 1149 0 14 -26 16 -235 16 -180 0 -237 -3 -240 -12z"/>
<path d="M5149 9478 c0 -2 -90 -504 -198 -1115 l-197 -1113 173 0 c95 0 173
-3 173 -7 0 -13 -91 -527 -96 -545 -5 -17 11 -18 235 -18 l239 0 6 28 c4 15
26 141 51 281 31 175 49 257 60 265 84 62 385 326 390 341 3 11 77 430 165
930 88 501 162 920 165 933 l5 22 -239 0 -239 0 -6 -27 c-3 -16 -71 -399 -151
-853 -80 -454 -148 -837 -151 -852 l-6 -28 -104 0 c-84 0 -104 3 -104 14 0 8
68 397 150 864 83 468 150 857 150 866 0 14 -26 16 -235 16 -129 0 -235 -1
-236 -2z"/>
<path d="M8270 8429 c-69 -27 -186 -80 -260 -117 l-135 -68 -31 -63 c-53 -104
-67 -177 -72 -361 -3 -117 1 -198 12 -280 9 -63 16 -117 16 -121 0 -4 -15 -5
-32 -3 -26 4 -44 -2 -82 -27 -45 -30 -55 -33 -116 -31 -51 3 -70 -1 -80 -13
-7 -8 -33 -29 -57 -45 -35 -24 -48 -28 -63 -20 -29 15 -55 12 -75 -10 -10 -11
-56 -41 -102 -66 -46 -25 -86 -51 -88 -57 -3 -7 -13 -61 -24 -122 -16 -97 -17
-113 -4 -133 8 -13 13 -26 10 -28 -10 -11 -2116 -856 -2189 -879 -31 -10 -63
-15 -71 -12 -8 3 -27 31 -43 61 -64 127 -154 200 -277 227 -114 26 -134 24
-261 -20 -152 -52 -167 -61 -299 -173 l-114 -96 -13 -97 c-12 -91 -9 -227 6
-312 6 -31 4 -33 -52 -59 -33 -14 -106 -44 -164 -66 -58 -22 -109 -43 -115
-48 -5 -4 -37 -15 -70 -25 -33 -9 -94 -34 -136 -55 l-77 -39 -4 55 c-6 71 -47
125 -98 130 -19 2 -45 6 -57 9 -12 3 -40 -2 -63 -11 -23 -10 -51 -14 -66 -10
-20 5 -34 0 -65 -28 -35 -32 -41 -35 -65 -24 -23 11 -28 9 -60 -26 -34 -37
-42 -39 -86 -21 -13 5 -22 -2 -36 -24 l-19 -32 -61 84 c-71 98 -195 218 -276
266 -78 47 -174 80 -254 87 -81 8 -198 -18 -336 -76 -50 -20 -138 -56 -196
-80 -58 -24 -116 -53 -129 -64 -61 -55 -116 -168 -148 -310 -12 -53 -17 -121
-17 -266 0 -189 10 -272 50 -416 4 -16 -1 -22 -28 -31 -243 -81 -288 -110
-288 -184 0 -55 24 -98 65 -115 53 -22 90 -17 163 20 67 34 179 73 185 65 2
-2 34 -62 71 -134 74 -142 151 -262 218 -341 169 -199 445 -293 648 -220 213
76 326 124 394 165 l35 22 20 -68 c26 -87 90 -219 143 -294 37 -53 79 -84 137
-101 7 -2 22 -31 32 -65 25 -80 58 -109 136 -118 100 -11 96 -1 51 -128 -68
-192 -102 -395 -115 -678 l-6 -146 124 5 c68 2 125 6 127 7 3 3 -45 542 -54
598 l-6 37 96 46 c53 25 104 44 114 42 19 -4 19 -1 1 -172 -10 -93 -7 -126 9
-98 67 118 138 234 156 257 27 34 26 33 331 10 320 -25 302 -25 318 -6 14 16
97 166 97 175 0 3 -29 -17 -66 -44 -41 -31 -75 -50 -92 -50 -15 0 -74 12 -132
26 -102 25 -109 25 -240 14 -74 -6 -152 -13 -172 -16 -37 -6 -38 -5 -38 28 0
18 7 77 17 131 l17 99 187 -3 c123 -2 191 0 200 8 12 9 116 57 204 94 29 13
28 13 -40 20 -228 24 -412 21 -533 -8 -19 -4 -22 -1 -22 26 0 34 34 130 75
210 l27 54 91 -7 c140 -10 289 -34 416 -67 62 -16 116 -28 118 -25 7 6 -147
101 -243 149 -103 52 -171 67 -316 67 -54 0 -98 2 -98 6 0 3 11 21 24 41 24
34 24 36 8 77 -28 75 -20 199 26 381 34 133 116 400 148 480 16 41 -23 -4 -64
-73 -93 -157 -130 -265 -194 -566 l-50 -239 22 -48 c13 -26 20 -55 16 -64 -9
-25 -39 -14 -58 23 l-16 33 -60 -53 c-74 -66 -241 -180 -253 -172 -5 3 -9 37
-9 75 0 96 27 134 154 218 53 35 95 66 92 68 -4 4 -186 -37 -240 -53 -18 -6
-19 -2 -13 72 13 161 86 339 197 478 60 75 106 116 206 184 l62 41 6 -31 c3
-17 6 -51 7 -77 l0 -46 21 45 c24 54 76 247 84 310 9 71 61 311 104 478 22 84
40 155 40 158 0 14 25 -2 73 -46 l55 -50 43 20 c85 38 86 36 91 -96 l3 -116
49 -44 c27 -25 79 -67 117 -96 81 -60 87 -78 26 -78 -53 0 -104 -31 -205 -125
-117 -109 -241 -272 -302 -396 l-21 -44 52 60 c103 119 366 371 443 423 119
83 387 191 563 227 156 33 363 16 450 -35 31 -18 32 -18 49 1 79 88 396 119
558 54 36 -15 71 -23 78 -19 7 4 54 38 103 75 117 86 163 112 260 144 97 33
250 45 310 25 43 -14 139 -99 161 -142 19 -37 17 -115 -5 -163 -41 -91 -111
-124 -364 -170 -221 -40 -379 -31 -451 26 -15 12 -29 19 -31 17 -8 -8 56 -78
84 -93 42 -21 196 -38 291 -32 99 7 271 40 349 68 100 35 220 131 279 223 14
23 28 43 29 45 2 3 25 -16 51 -41 52 -50 104 -88 121 -88 6 0 -3 19 -19 42
-120 165 -94 489 71 883 l42 100 7 265 c4 146 5 270 1 276 -3 7 -76 77 -161
157 l-156 146 9 103 c4 57 9 108 11 113 5 14 135 69 143 61 4 -4 9 -32 11 -64
3 -54 2 -59 -32 -98 l-35 -41 77 -5 c61 -3 89 -11 131 -33 65 -36 148 -125
187 -202 25 -51 29 -69 29 -143 0 -47 -3 -119 -7 -160 l-8 -75 30 74 c16 41
33 78 38 83 5 5 18 -39 30 -100 16 -83 36 -140 86 -248 35 -78 78 -182 95
-233 36 -106 114 -423 131 -528 11 -68 10 -76 -13 -135 -14 -35 -31 -89 -38
-121 -7 -32 -16 -60 -20 -63 -4 -2 -10 31 -14 73 -3 43 -13 110 -21 148 -27
128 -96 416 -100 413 -1 -2 1 -138 6 -303 11 -338 15 -362 86 -501 25 -50 44
-100 42 -110 -5 -31 -58 -30 -88 1 -30 32 -39 32 -102 -8 -78 -49 -130 -68
-373 -140 -340 -100 -513 -133 -770 -144 l-150 -7 60 -19 c90 -28 334 -74 467
-88 138 -14 138 -15 9 -87 -113 -64 -249 -125 -335 -151 -66 -20 -74 -21 -155
-7 -212 37 -293 87 -547 338 -130 129 -131 130 -138 102 -9 -37 -61 -114 -123
-183 l-48 -53 -38 16 c-63 26 -98 57 -119 103 -17 40 -18 52 -8 112 6 37 26
105 45 151 19 46 32 86 30 88 -2 2 -18 -4 -36 -13 -45 -24 -111 -92 -206 -215
-149 -192 -141 -185 -288 -236 -338 -118 -796 -228 -1035 -250 -80 -8 -82 -8
-40 -15 116 -17 566 39 1014 126 98 19 187 35 196 35 24 0 128 -129 136 -168
8 -42 -24 -108 -88 -177 -43 -47 -60 -58 -122 -77 -60 -19 -95 -22 -224 -23
-170 0 -170 0 -52 -60 82 -41 210 -84 273 -92 58 -7 57 -19 -8 -55 -116 -63
-306 -83 -470 -49 -54 11 -101 19 -103 17 -2 -2 25 -27 60 -55 99 -80 288
-171 355 -171 73 0 -48 -71 -230 -135 -116 -41 -119 -42 -83 -49 20 -4 85 -7
145 -8 l109 0 -13 -50 c-8 -27 -19 -90 -25 -141 -11 -86 -17 -101 -84 -227
-112 -206 -199 -414 -208 -494 -3 -29 -2 -30 42 -28 320 13 526 25 531 30 4 4
-6 68 -21 142 -28 135 -66 256 -121 382 -34 78 -39 180 -13 269 21 73 111 252
137 277 12 11 103 74 202 140 99 66 225 155 280 199 121 96 252 233 283 296
13 27 37 55 58 68 l35 21 77 -35 c202 -92 510 -143 712 -117 111 14 278 66
370 116 197 108 396 273 600 498 l105 116 81 25 c98 30 152 67 184 127 l24 46
-19 81 -19 82 33 112 c46 159 50 201 34 309 -30 207 -135 611 -189 732 -89
199 -104 242 -113 334 -6 51 -7 109 -4 129 3 21 31 92 63 158 31 66 61 131 67
144 9 23 13 18 57 -63 47 -87 206 -342 246 -394 57 -74 149 -154 247 -213 91
-55 113 -64 152 -63 58 0 540 181 578 215 80 75 133 292 133 544 0 140 -11
197 -95 480 -19 66 -35 123 -35 127 0 3 26 14 58 23 66 19 163 69 188 96 10
11 17 36 17 69 1 40 -5 58 -29 92 -42 60 -90 91 -134 85 -19 -2 -82 -25 -140
-51 -81 -36 -107 -44 -113 -34 -4 7 -36 62 -71 121 -82 138 -131 201 -236 308
-92 93 -170 144 -277 182 -115 41 -116 41 -253 -14z m268 -74 c144 -43 328
-226 465 -464 68 -119 53 -122 -20 -4 -76 122 -203 276 -281 341 -85 71 -143
96 -229 100 -64 4 -78 1 -116 -21 -191 -112 -208 -518 -40 -976 134 -365 388
-703 613 -816 97 -49 155 -45 224 17 143 125 174 393 90 762 -14 60 -23 110
-21 113 3 2 15 -33 27 -79 67 -248 77 -523 25 -695 -17 -56 -63 -124 -107
-156 -34 -25 -106 -37 -166 -26 -154 29 -351 201 -523 458 -112 167 -205 371
-269 592 -84 294 -80 599 10 738 77 121 177 157 318 116z m-434 -145 c-66
-229 -57 -454 31 -759 49 -171 107 -313 217 -530 54 -107 97 -195 95 -197 -1
-1 -31 32 -66 73 -60 70 -187 254 -253 367 l-28 46 -59 0 c-95 0 -103 6 -133
101 -81 253 -106 471 -74 649 15 80 69 232 89 248 19 15 170 81 188 81 15 1
14 -8 -7 -79z m1335 -374 c25 -26 41 -109 24 -119 -28 -17 -83 62 -83 118 0
33 29 33 59 1z m-124 -53 c3 -16 20 -42 37 -60 29 -30 30 -33 12 -39 -56 -20
-190 -74 -361 -146 -106 -44 -198 -76 -204 -73 -14 9 -48 84 -49 107 0 11 33
30 113 64 201 85 422 174 433 174 7 0 15 -12 19 -27z m-563 -32 c63 -40 65
-48 12 -47 -64 1 -77 -18 -71 -109 8 -138 127 -293 196 -255 12 6 21 21 21 35
0 24 25 45 54 45 22 0 22 -96 0 -150 -29 -73 -83 -68 -174 16 -137 127 -213
392 -135 470 31 31 41 30 97 -5z m-905 -455 c12 -39 23 -73 23 -78 0 -4 -14
-15 -31 -24 -30 -15 -32 -15 -61 13 l-30 28 -17 -24 c-9 -14 -23 -34 -33 -45
l-16 -21 -27 25 c-22 21 -26 31 -22 63 3 20 2 37 -1 37 -4 0 -27 -38 -51 -85
-48 -95 -46 -94 -102 -24 -28 36 -30 42 -19 74 17 52 53 75 116 75 29 0 56 -5
60 -11 4 -7 19 2 40 22 31 30 88 50 133 45 8 0 24 -31 38 -70z m-722 -456 c8
-13 13 -11 -635 -270 -889 -355 -1349 -534 -1356 -528 -4 5 11 11 1159 472
434 174 796 320 805 326 21 12 20 12 27 0z m210 -207 c33 -32 36 -62 25 -232
-5 -91 -12 -196 -14 -232 -3 -58 -10 -80 -59 -170 -79 -149 -112 -260 -137
-464 -14 -115 -15 -120 -47 -134 -23 -10 -32 -9 -72 13 -143 80 -199 96 -331
96 -151 0 -335 -69 -462 -175 -66 -54 -66 -54 -84 -33 -53 58 -185 94 -308 83
-125 -11 -217 -44 -363 -131 -31 -18 -33 -18 -151 5 -67 13 -133 20 -149 17
-28 -6 -29 -5 -80 106 -45 100 -54 114 -82 122 -38 11 -41 40 -10 80 l21 26
-22 37 c-25 43 -20 63 15 63 33 0 41 22 19 55 -9 14 -14 28 -11 31 7 8 498
195 1047 400 228 86 552 207 720 271 313 119 486 181 507 182 6 1 19 -6 28
-16z m-2834 -446 c72 -17 135 -53 168 -96 l26 -34 -76 6 c-81 7 -149 -6 -149
-27 0 -16 74 -66 145 -97 34 -15 71 -22 120 -23 66 -1 74 -4 115 -38 25 -20
63 -41 85 -47 28 -7 45 -20 57 -41 21 -37 11 -44 -52 -35 l-50 7 0 -39 c0 -44
19 -225 23 -230 2 -1 28 -7 57 -13 59 -11 61 -13 102 -107 l27 -63 -37 16
c-130 56 -187 77 -324 119 -230 70 -344 120 -396 174 -47 48 -73 47 -51 -2 16
-35 -5 -60 -67 -77 l-45 -13 -39 38 c-43 42 -58 77 -62 145 -3 42 -1 45 33 64
l36 20 6 85 c7 123 55 219 137 276 66 46 118 53 211 32z m599 -162 c-14 -8
-29 -14 -35 -14 -5 0 1 6 15 14 14 8 30 14 35 14 6 0 -1 -6 -15 -14z m-400
-30 c11 -10 17 -22 14 -27 -9 -13 -51 -1 -99 29 l-40 25 53 -5 c31 -2 60 -11
72 -22z m-2840 -342 c-8 -3 -36 -16 -62 -30 -27 -13 -48 -21 -48 -18 0 8 94
54 110 54 13 -1 13 -1 0 -6z m10 -37 c0 -2 -24 -18 -54 -35 -118 -66 -193
-173 -238 -336 -37 -138 -28 -486 18 -682 4 -19 3 -25 -3 -18 -11 10 -34 104
-53 210 -6 33 -14 116 -17 185 -9 201 33 388 112 505 44 65 146 149 198 164
18 5 33 10 35 10 1 1 2 -1 2 -3z m-282 -73 c-1 -5 -20 -42 -40 -83 -47 -95
-85 -235 -100 -370 -28 -256 57 -656 207 -967 30 -63 50 -111 44 -108 -17 11
-183 270 -213 332 -26 55 -33 62 -70 73 -23 6 -52 12 -65 13 -30 2 -50 44 -85
179 -68 262 -52 534 45 731 49 102 81 132 179 171 91 37 103 40 98 29z m1545
-141 c19 -21 38 -68 30 -75 -7 -8 -84 22 -103 40 -13 13 -12 17 9 34 29 24 43
24 64 1z m-133 -17 c0 -11 -12 -15 -44 -15 -43 0 -63 10 -49 24 3 3 26 6 50 6
32 0 43 -4 43 -15z m-164 -92 c-10 -79 -15 -93 -34 -93 -36 0 -45 16 -39 65 7
52 30 85 60 85 18 0 19 -5 13 -57z m219 18 c26 -5 36 -17 67 -83 l37 -77 -101
-181 -101 -181 18 -40 c10 -22 44 -74 76 -116 63 -83 65 -90 75 -221 l7 -91
-36 -48 c-47 -65 -78 -160 -84 -265 l-6 -88 44 -57 c47 -61 110 -111 162 -129
29 -10 33 -16 40 -63 16 -98 -8 -126 -74 -89 -36 20 -130 123 -174 191 -27 41
-30 25 -4 -25 43 -85 109 -178 170 -239 l61 -61 -12 -59 c-7 -32 -10 -83 -8
-114 3 -31 1 -58 -2 -60 -17 -11 -61 41 -94 109 -38 82 -45 88 -94 93 -98 10
-166 106 -226 315 -51 179 -58 392 -21 658 46 327 45 317 28 367 -12 34 -14
67 -10 130 10 141 70 222 193 263 35 12 67 27 73 34 19 22 -16 54 -77 72 -63
18 -82 30 -82 50 0 11 16 14 63 13 34 -1 76 -4 92 -8z m-337 -66 c7 -14 12
-28 12 -30 0 -8 -62 -36 -68 -31 -9 10 18 86 32 86 7 0 18 -11 24 -25z m1082
2 c0 -26 -42 -277 -66 -397 -9 -41 -22 -85 -29 -97 -8 -12 -54 -47 -102 -78
-99 -64 -154 -113 -189 -167 -25 -39 -50 -50 -145 -63 l-47 -7 -17 54 c-20 61
-57 139 -103 219 l-33 57 99 98 c56 57 103 114 111 134 7 19 16 42 20 50 7 14
460 217 489 219 6 1 12 -10 12 -22z m-1744 -107 c-20 -18 -41 -50 -50 -77 -20
-60 -21 -191 -1 -267 9 -33 14 -61 11 -63 -11 -12 -49 121 -54 188 -8 128 44
249 108 249 18 0 16 -4 -14 -30z m221 -65 c29 -19 53 -39 53 -44 0 -6 -21 -13
-47 -16 -75 -10 -84 -15 -99 -51 -36 -86 -3 -223 72 -301 42 -44 45 -45 86
-39 63 10 72 26 15 26 -26 0 -47 4 -47 10 0 10 130 75 173 85 l27 7 0 -68 c0
-89 -15 -140 -50 -176 -103 -103 -334 74 -395 303 -28 105 -16 217 29 268 46
51 101 50 183 -4z m-1037 -659 c0 -26 -49 -54 -148 -87 -53 -17 -102 -36 -109
-41 -14 -12 -33 -2 -33 16 0 21 47 47 160 87 118 43 130 45 130 25z m2070 -76
c0 -5 -9 -42 -20 -82 -11 -40 -28 -143 -37 -228 l-18 -155 -42 -3 c-134 -10
-157 208 -40 387 14 21 43 43 82 62 67 31 75 33 75 19z m313 -677 c2 -5 -2
-42 -9 -83 -7 -41 -16 -108 -20 -149 l-7 -73 -39 6 c-134 22 -154 20 -207 -13
-51 -31 -51 -31 -51 -8 0 13 7 45 17 72 34 102 287 300 316 248z m-93 -404
c35 -5 66 -12 69 -15 5 -4 -18 -226 -24 -232 -2 -2 -29 0 -60 5 -55 10 -56 10
-125 -33 -39 -24 -72 -44 -75 -44 -3 0 -5 64 -5 143 l0 143 43 21 c48 25 85
27 177 12z"/>
<path d="M7422 5688 l-93 -181 40 -66 c22 -36 59 -88 83 -116 62 -72 197 -199
204 -193 3 3 -14 43 -36 89 -23 46 -67 140 -97 209 -62 142 -62 150 -22 338
11 52 19 95 17 97 -2 2 -45 -78 -96 -177z"/>
<path d="M9619 2343 l-65 -4 -98 -98 -98 -99 -91 -726 c-50 -399 -89 -728 -86
-730 2 -2 118 0 258 4 175 5 255 11 260 19 4 6 13 62 20 124 7 62 14 120 17
129 5 15 -7 16 -141 11 l-145 -6 5 29 c3 16 23 167 44 336 21 168 42 311 45
317 5 7 47 11 112 11 57 0 104 1 104 3 1 1 9 64 19 140 l17 137 -109 0 -110 0
6 56 c3 31 9 59 12 62 3 4 68 8 144 10 l138 4 12 112 c7 61 15 123 18 139 l6
27 -114 -2 c-63 -1 -144 -3 -180 -5z"/>
<path d="M9019 2308 c-1 -67 -77 -599 -82 -578 -3 14 -11 152 -18 308 l-12
282 -123 0 c-86 0 -124 -3 -124 -11 0 -7 -45 -371 -100 -809 -55 -439 -100
-808 -100 -819 0 -21 3 -21 118 -15 64 4 118 7 118 8 1 0 23 165 48 366 26
200 49 366 51 369 3 2 6 -58 6 -135 1 -76 4 -242 8 -369 l6 -230 120 4 c66 2
121 4 122 5 3 2 203 1602 203 1624 0 21 -3 22 -120 22 -118 0 -120 0 -121 -22z"/>
<path d="M8189 2303 l-65 -4 -98 -98 -98 -98 -89 -709 c-49 -390 -89 -718 -89
-730 0 -21 2 -21 208 -16 l207 4 102 101 101 102 91 721 c50 397 91 724 91
728 0 6 -235 5 -361 -1z m81 -289 c0 -26 -130 -1057 -135 -1071 -3 -8 -25 -13
-60 -13 -52 0 -55 1 -50 23 3 12 32 240 65 507 77 618 66 558 98 563 62 9 82
7 82 -9z"/>
<path d="M7479 2283 l-65 -4 -98 -98 -98 -98 -89 -709 c-49 -390 -89 -719 -89
-732 0 -22 0 -22 118 -16 64 4 118 7 119 8 0 0 14 101 29 223 15 123 29 221
32 218 3 -3 50 -401 52 -438 0 -7 230 1 238 9 2 1 -9 120 -24 263 l-28 261 71
73 72 72 60 480 c34 265 61 484 61 488 0 7 -228 7 -361 0z m81 -289 c0 -26
-70 -578 -75 -591 -3 -8 -24 -13 -58 -13 l-53 0 37 298 c21 163 38 300 39 304
0 7 35 14 83 17 19 1 27 -4 27 -15z"/>
<path d="M6849 2263 l-65 -4 -98 -98 -98 -99 -91 -726 c-50 -399 -89 -728 -86
-730 2 -2 118 0 258 4 175 5 255 11 260 19 4 6 13 62 20 124 7 62 14 120 17
129 5 15 -7 16 -141 11 l-145 -6 5 29 c3 16 23 167 44 336 21 168 42 311 45
317 5 7 47 11 112 11 57 0 104 1 104 3 1 1 9 64 19 140 l17 137 -109 0 -110 0
6 56 c3 31 9 59 12 62 3 4 68 8 144 10 l138 4 12 112 c7 61 15 123 18 139 l6
27 -114 -2 c-63 -1 -144 -3 -180 -5z"/>
<path d="M6098 2253 c-93 -2 -168 -7 -168 -11 0 -4 -7 -54 -15 -112 -8 -58
-15 -117 -15 -132 l0 -28 85 0 c60 0 85 -4 85 -12 0 -14 -157 -1264 -166
-1320 l-6 -38 121 0 c67 0 121 1 122 3 0 1 40 310 87 687 l87 685 90 5 90 5
12 100 c7 55 14 117 18 138 l5 37 -132 -2 c-73 -1 -208 -4 -300 -5z"/>
<path d="M5489 2233 l-65 -4 -98 -98 -98 -98 -43 -349 c-24 -192 -47 -366 -50
-388 l-6 -39 180 8 179 7 -5 -39 c-2 -21 -14 -112 -26 -203 l-22 -165 -58 -3
c-56 -3 -57 -2 -53 20 3 13 10 64 16 113 6 50 14 102 16 117 l6 28 -114 0
c-62 0 -118 -4 -124 -8 -10 -7 -82 -548 -73 -555 2 -2 97 -2 210 1 l207 4 100
102 101 101 45 367 c25 201 46 375 46 385 0 17 -11 18 -175 15 -96 -2 -175 -2
-175 0 0 15 50 392 52 394 2 1 27 6 56 10 62 8 59 17 37 -146 -8 -58 -15 -112
-15 -120 0 -13 18 -15 120 -12 l119 3 6 32 c5 33 65 509 65 521 0 6 -234 5
-361 -1z"/>
<path d="M4779 2213 l-65 -4 -98 -98 -98 -98 -89 -709 c-49 -390 -89 -718 -89
-730 0 -21 2 -21 208 -16 l207 4 102 101 101 102 91 721 c50 396 91 724 91
727 0 7 -232 6 -361 0z m81 -290 c0 -25 -130 -1056 -135 -1070 -3 -8 -24 -13
-60 -13 -52 0 -55 1 -50 23 3 12 32 240 65 507 77 618 66 558 98 563 63 9 82
7 82 -10z"/>
<path d="M4038 2193 c-93 -2 -168 -7 -168 -11 0 -4 -7 -54 -15 -112 -8 -58
-15 -117 -15 -132 l0 -28 85 0 c60 0 85 -4 85 -12 0 -14 -157 -1264 -166
-1320 l-6 -38 121 0 c67 0 121 1 122 3 0 1 40 310 87 687 l87 685 90 5 90 5
12 100 c7 55 14 117 18 138 l5 37 -132 -2 c-73 -1 -208 -4 -300 -5z"/>
<path d="M3429 2173 l-65 -4 -98 -98 -98 -98 -43 -349 c-24 -192 -47 -366 -50
-388 l-6 -39 180 8 179 7 -5 -39 c-2 -21 -14 -112 -26 -203 l-22 -165 -58 -3
c-56 -3 -57 -2 -53 20 3 13 10 64 16 113 6 50 14 102 16 117 l6 28 -114 0
c-62 0 -118 -4 -124 -8 -10 -7 -82 -548 -73 -555 2 -2 97 -2 210 1 l207 4 100
102 101 101 45 367 c25 201 46 375 46 385 0 17 -11 18 -175 15 -96 -2 -175 -2
-175 0 0 15 50 392 52 394 2 1 27 6 56 10 62 8 59 17 37 -146 -8 -58 -15 -112
-15 -120 0 -13 18 -15 120 -12 l119 3 6 32 c5 33 65 509 65 521 0 6 -234 5
-361 -1z"/>
<path d="M2789 2153 l-65 -4 -98 -98 -98 -99 -91 -726 c-50 -399 -89 -728 -86
-730 2 -2 118 0 258 4 175 5 255 11 260 19 4 6 13 62 20 124 7 62 14 120 17
129 5 15 -7 16 -141 11 l-145 -6 5 29 c3 16 23 167 44 336 21 168 42 311 45
317 5 7 47 11 112 11 57 0 104 1 104 3 1 1 9 64 19 140 l17 137 -109 0 -110 0
6 56 c3 31 9 59 12 62 3 4 68 8 144 10 l138 4 12 112 c7 61 15 123 18 139 l6
27 -114 -2 c-63 -1 -144 -3 -180 -5z"/>
<path d="M2048 2133 c-93 -2 -168 -7 -168 -11 0 -4 -7 -54 -15 -112 -8 -58
-15 -117 -15 -132 l0 -28 85 0 c60 0 85 -4 85 -12 0 -14 -157 -1264 -166
-1320 l-6 -38 121 0 c67 0 121 1 122 3 0 1 40 310 87 687 l87 685 90 5 90 5
12 100 c7 55 14 117 18 138 l5 37 -132 -2 c-73 -1 -208 -4 -300 -5z"/>
</g>
</svg>
